<?xml version="1.0" encoding="utf-8"?>
<!-- Generator: Adobe Illustrator 16.0.0, SVG Export Plug-In . SVG Version: 6.00 Build 0)  -->
<!DOCTYPE svg PUBLIC "-//W3C//DTD SVG 1.1//EN" "http://www.w3.org/Graphics/SVG/1.1/DTD/svg11.dtd">
<svg version="1.1" id="Capa_1" xmlns="http://www.w3.org/2000/svg" xmlns:xlink="http://www.w3.org/1999/xlink" x="0px" y="0px"
	 width="612px" height="612px" viewBox="0 90 612 612" enable-background="new 0 90 612 612" xml:space="preserve">
<g>
	<path d="M468.881,415.762c-23.023,0-44.791,5.473-64.082,15.174c3.877-10.933,5.996-22.69,5.996-34.936
		c0-12.245-2.119-24.003-5.996-34.936c19.291,9.701,41.057,15.174,64.082,15.174c78.917,0,143.119-64.203,143.119-143.12
		C612,154.203,547.798,90,468.881,90s-143.119,64.203-143.119,143.119c0,23.025,5.473,44.791,15.174,64.082
		c-10.933-3.877-22.69-5.996-34.936-5.996c-12.245,0-24.003,2.119-34.936,5.996c9.701-19.29,15.174-41.057,15.174-64.082
		C286.239,154.203,222.036,90,143.119,90C64.203,90,0,154.203,0,233.119c0,78.917,64.203,143.12,143.119,143.12
		c23.024,0,44.791-5.473,64.082-15.174c-3.876,10.932-5.995,22.691-5.995,34.936c0,12.245,2.119,24.003,5.995,34.936
		c-19.291-9.701-41.058-15.174-64.082-15.174C64.203,415.762,0,479.964,0,558.881S64.203,702,143.119,702
		c78.917,0,143.12-64.202,143.12-143.119c0-23.025-5.473-44.791-15.174-64.082c10.932,3.877,22.691,5.996,34.936,5.996
		c12.245,0,24.003-2.119,34.936-5.996c-9.701,19.291-15.174,41.057-15.174,64.082c0,78.917,64.202,143.119,143.119,143.119
		S612,637.798,612,558.881S547.798,415.762,468.881,415.762z M468.881,107.965c69.011,0,125.154,56.144,125.154,125.154
		c0,69.011-56.144,125.155-125.154,125.155c-31.279,0-59.916-11.535-81.879-30.574l69.364-69.364
		c3.841,1.91,8.099,2.928,12.515,2.928c4.415,0,8.672-1.018,12.514-2.928l48.885,48.885c1.754,1.753,4.053,2.63,6.352,2.63
		c2.298,0,4.598-0.877,6.351-2.63c3.508-3.508,3.508-9.196,0-12.703l-48.884-48.884c1.91-3.842,2.928-8.099,2.928-12.515
		c0-7.518-2.928-14.586-8.243-19.901c-5.315-5.316-12.384-8.243-19.901-8.243c-4.416,0-8.673,1.018-12.515,2.928l-48.885-48.885
		c-3.508-3.508-9.195-3.508-12.702,0c-3.508,3.508-3.508,9.196,0,12.703l48.885,48.884c-1.91,3.842-2.929,8.099-2.929,12.514
		c0,4.416,1.019,8.672,2.929,12.515L374.3,314.998c-19.039-21.964-30.574-50.6-30.574-81.879
		C343.726,164.108,399.869,107.965,468.881,107.965z M468.881,222.939c2.72,0,5.275,1.059,7.197,2.982
		c1.923,1.922,2.982,4.479,2.982,7.198c0,2.719-1.059,5.276-2.982,7.199c-1.922,1.922-4.479,2.981-7.197,2.981
		s-5.276-1.059-7.198-2.981l0,0c-1.922-1.922-2.982-4.479-2.982-7.198s1.06-5.276,2.982-7.199
		C463.604,223.998,466.161,222.939,468.881,222.939z M17.965,233.119c0-69.011,56.144-125.154,125.154-125.154
		c69.011,0,125.155,56.144,125.155,125.154c0,31.279-11.535,59.915-30.574,81.879l-69.364-69.364
		c1.91-3.842,2.928-8.099,2.928-12.515c0-4.416-1.018-8.672-2.928-12.514l48.885-48.884c3.508-3.508,3.508-9.194,0-12.702
		c-3.508-3.508-9.196-3.508-12.703,0l-48.883,48.884c-3.843-1.91-8.1-2.928-12.516-2.928c-7.518,0-14.586,2.927-19.901,8.243
		c-5.315,5.315-8.243,12.384-8.243,19.901c0,4.416,1.018,8.672,2.928,12.515l-48.885,48.884c-3.508,3.508-3.508,9.194,0,12.703
		c1.753,1.753,4.053,2.63,6.352,2.63c2.298,0,4.598-0.877,6.351-2.63l48.883-48.885c3.841,1.91,8.099,2.928,12.514,2.928
		s8.672-1.018,12.514-2.928l69.364,69.364c-21.962,19.039-50.598,30.574-81.877,30.574C74.108,358.274,17.965,302.13,17.965,233.119
		z M143.119,243.299c-2.72,0-5.275-1.059-7.198-2.982c-1.922-1.922-2.982-4.479-2.982-7.198c0-2.718,1.059-5.275,2.982-7.199
		c1.922-1.922,4.479-2.981,7.198-2.981c2.719,0,5.276,1.059,7.198,2.982c1.922,1.922,2.982,4.479,2.982,7.198
		c0,2.719-1.059,5.276-2.982,7.198l0,0C148.395,242.241,145.839,243.299,143.119,243.299z M143.119,684.035
		c-69.011,0-125.154-56.144-125.154-125.154c0-69.012,56.144-125.155,125.154-125.155c31.279,0,59.915,11.535,81.879,30.574
		l-69.364,69.364c-3.842-1.91-8.099-2.929-12.515-2.929c-4.416,0-8.672,1.019-12.514,2.929l-48.883-48.885
		c-3.508-3.508-9.195-3.508-12.702,0c-3.508,3.508-3.508,9.195,0,12.702l48.884,48.885c-1.911,3.842-2.929,8.099-2.929,12.515
		c0,7.518,2.928,14.586,8.243,19.901c5.315,5.315,12.383,8.243,19.901,8.243c4.416,0,8.672-1.018,12.515-2.928l48.883,48.884
		c1.753,1.754,4.053,2.63,6.351,2.63s4.598-0.876,6.351-2.63c3.508-3.508,3.508-9.195,0-12.702l-48.884-48.885
		c1.91-3.842,2.928-8.098,2.928-12.514s-1.018-8.673-2.928-12.515l69.364-69.364c19.04,21.964,30.575,50.6,30.575,81.879
		C268.274,627.892,212.13,684.035,143.119,684.035z M143.119,569.061c-2.72,0-5.275-1.059-7.198-2.982
		c-1.922-1.922-2.982-4.479-2.982-7.197s1.059-5.276,2.982-7.199c1.922-1.922,4.479-2.981,7.198-2.981
		c2.719,0,5.276,1.06,7.198,2.981l0,0c1.922,1.922,2.982,4.479,2.982,7.198c0,2.718-1.059,5.275-2.982,7.198
		C148.395,568.002,145.839,569.061,143.119,569.061z M219.17,396c0-47.878,38.951-86.83,86.83-86.83
		c47.879,0,86.83,38.951,86.83,86.83c0,47.879-38.951,86.83-86.83,86.83C258.122,482.83,219.17,443.879,219.17,396z
		 M468.881,684.035c-69.012,0-125.155-56.144-125.155-125.154c0-31.279,11.535-59.915,30.574-81.879l69.364,69.364
		c-1.91,3.842-2.929,8.099-2.929,12.515c0,4.415,1.019,8.672,2.929,12.514l-48.885,48.885c-3.508,3.508-3.508,9.194,0,12.702
		c1.754,1.754,4.053,2.63,6.352,2.63c2.298,0,4.598-0.876,6.351-2.63l48.885-48.884c3.841,1.91,8.099,2.928,12.515,2.928
		c7.518,0,14.586-2.927,19.901-8.243c5.315-5.315,8.243-12.384,8.243-19.901c0-4.416-1.018-8.673-2.928-12.515l48.884-48.885
		c3.508-3.508,3.508-9.194,0-12.702s-9.195-3.508-12.702,0l-48.885,48.885c-3.842-1.91-8.099-2.929-12.514-2.929
		c-4.416,0-8.673,1.019-12.515,2.929L387.002,464.3c21.963-19.039,50.6-30.574,81.879-30.574
		c69.011,0,125.154,56.144,125.154,125.155C594.035,627.892,537.892,684.035,468.881,684.035z M468.881,548.7
		c2.72,0,5.275,1.06,7.197,2.982c1.923,1.922,2.982,4.479,2.982,7.198s-1.059,5.275-2.982,7.199c-1.922,1.922-4.479,2.98-7.197,2.98
		s-5.276-1.059-7.198-2.982c-1.922-1.922-2.982-4.479-2.982-7.197s1.06-5.276,2.982-7.198l0,0
		C463.604,549.76,466.161,548.7,468.881,548.7z"/>
	<path d="M361.383,359.233c-2.746-4.131-8.322-5.253-12.453-2.506c-4.131,2.747-5.253,8.323-2.506,12.454
		c5.287,7.95,8.082,17.223,8.082,26.819c0,26.746-21.759,48.505-48.505,48.505c-26.746,0-48.506-21.759-48.506-48.505
		s21.759-48.505,48.505-48.505c5.534,0,10.957,0.922,16.119,2.74c4.681,1.648,9.809-0.809,11.457-5.489
		c1.647-4.679-0.81-9.808-5.489-11.456c-7.085-2.495-14.517-3.761-22.088-3.761c-36.652,0-66.47,29.818-66.47,66.47
		c0,36.651,29.818,66.47,66.47,66.47c36.651,0,66.47-29.818,66.47-66.47C372.47,382.854,368.636,370.14,361.383,359.233z"/>
</g>
</svg>
