<?xml version="1.0" encoding="utf-8"?>
<!-- Generator: Adobe Illustrator 16.0.0, SVG Export Plug-In . SVG Version: 6.00 Build 0)  -->
<!DOCTYPE svg PUBLIC "-//W3C//DTD SVG 1.1//EN" "http://www.w3.org/Graphics/SVG/1.1/DTD/svg11.dtd">
<svg version="1.1" id="Capa_1" xmlns="http://www.w3.org/2000/svg" xmlns:xlink="http://www.w3.org/1999/xlink" x="0px" y="0px"
	 width="612px" height="569.938px" viewBox="0 111.036 612 569.938" enable-background="new 0 111.036 612 569.938"
	 xml:space="preserve">
<g>
	<circle cx="383.797" cy="525.952" r="20.746"/>
	<circle cx="456.407" cy="598.562" r="20.746"/>
	<circle cx="456.407" cy="453.341" r="20.746"/>
	<path d="M186.712,494.833v-31.119H145.22v31.119c0,5.736-4.647,10.373-10.373,10.373h-31.119v41.491h31.119
		c5.726,0,10.373,4.637,10.373,10.373v31.118h41.492V557.07c0-5.736,4.647-10.373,10.373-10.373h31.119v-41.491h-31.119
		C191.359,505.206,186.712,500.569,186.712,494.833z"/>
	<path d="M458.958,370.358H321.56V251.07c0-20.02,16.285-36.305,36.305-36.305s36.306,16.285,36.306,36.305v36.305
		c0,28.598,23.266,51.865,51.864,51.865c28.598,0,51.864-23.267,51.864-51.865V121.409c0-5.736-4.647-10.373-10.373-10.373
		s-10.373,4.637-10.373,10.373v165.966c0,17.157-13.962,31.119-31.118,31.119c-17.157,0-31.119-13.962-31.119-31.119V251.07
		c0-31.451-25.59-57.051-57.051-57.051s-57.051,25.601-57.051,57.051v119.288H155.303C69.664,370.358,0,440.022,0,525.661
		c0,74.155,54.032,154.266,134.464,155.303l2.168,0.011c22.011,0,59.136-3.725,97.318-14.18
		c44.271-12.137,102.214-12.126,146.33-0.011c37.581,10.342,79.995,14.19,97.899,14.19l1.639-0.011
		C543.394,679.875,612,620.189,612,525.661C612,440.022,543.342,370.358,458.958,370.358z M456.407,411.85
		c22.882,0,41.491,18.609,41.491,41.491c0,22.883-18.609,41.492-41.491,41.492c-22.883,0-41.492-18.609-41.492-41.492
		C414.915,430.459,433.524,411.85,456.407,411.85z M248.949,557.07c0,5.736-4.647,10.373-10.373,10.373h-31.119v31.118
		c0,5.736-4.647,10.373-10.373,10.373h-62.237c-5.726,0-10.373-4.637-10.373-10.373v-31.118H93.356
		c-5.726,0-10.373-4.637-10.373-10.373v-62.237c0-5.736,4.647-10.373,10.373-10.373h31.119v-31.119
		c0-5.735,4.647-10.372,10.373-10.372h62.237c5.726,0,10.373,4.637,10.373,10.372v31.119h31.119c5.726,0,10.373,4.637,10.373,10.373
		V557.07z M290.44,432.596c-5.726,0-10.373-4.637-10.373-10.373s4.647-10.373,10.373-10.373h48.037
		c5.726,0,10.373,4.637,10.373,10.373s-4.647,10.373-10.373,10.373H290.44z M383.797,567.443c-22.883,0-41.492-18.609-41.492-41.492
		s18.609-41.491,41.492-41.491c22.882,0,41.491,18.608,41.491,41.491S406.679,567.443,383.797,567.443z M456.407,640.053
		c-22.883,0-41.492-18.608-41.492-41.491s18.609-41.491,41.492-41.491c22.882,0,41.491,18.608,41.491,41.491
		S479.289,640.053,456.407,640.053z M529.017,567.443c-22.882,0-41.491-18.609-41.491-41.492s18.609-41.491,41.491-41.491
		c22.883,0,41.492,18.608,41.492,41.491S551.899,567.443,529.017,567.443z"/>
	<circle cx="529.017" cy="525.952" r="20.746"/>
</g>
</svg>
