<?xml version="1.0" encoding="utf-8"?>
<!-- Generator: Adobe Illustrator 16.0.0, SVG Export Plug-In . SVG Version: 6.00 Build 0)  -->
<!DOCTYPE svg PUBLIC "-//W3C//DTD SVG 1.1//EN" "http://www.w3.org/Graphics/SVG/1.1/DTD/svg11.dtd">
<svg version="1.1" id="Capa_1" xmlns="http://www.w3.org/2000/svg" xmlns:xlink="http://www.w3.org/1999/xlink" x="0px" y="0px"
	 width="591.706px" height="612.001px" viewBox="10.147 90 591.706 612.001" enable-background="new 10.147 90 591.706 612.001"
	 xml:space="preserve">
<g>
	<g transform="translate(1 1)">
		<path fill="none" d="M590.644,331.139v198.975c0.028,5.527-2.181,10.83-6.125,14.701l-4.288,4.288v38.079
			c-0.002,1.978-0.105,3.954-0.307,5.921c-0.196,2.637-0.537,5.262-1.021,7.861c-0.51,2.552-1.123,5.207-1.837,7.759
			c-1.61,5.922-3.728,11.694-6.329,17.253c-1.021,2.144-2.144,4.288-3.166,6.432c-0.407,0.714-0.816,1.531-1.225,2.245
			c-1.633,2.858-3.369,5.718-5.105,8.475c-0.102,0.204-0.305,0.407-0.407,0.612c-2.552,3.675-5.207,7.351-7.964,10.821
			c-0.139,0.229-0.311,0.435-0.511,0.612c-1.021,1.226-2.144,2.552-3.267,3.777c-2.145,2.45-4.491,4.798-6.84,7.146
			c-2.349,2.246-4.799,4.39-7.249,6.432c-1.328,1.021-2.552,1.939-3.881,2.961c-0.116,0.126-0.255,0.23-0.408,0.307
			c-2.247,1.633-4.595,3.164-7.045,4.695c-5.432,3.314-11.265,5.921-17.356,7.759c-1.326,0.307-2.654,0.714-3.981,1.021
			c-1.43,0.307-2.858,0.612-4.288,0.817c-2.899,0.491-5.837,0.729-8.777,0.714c-7.294,0.009-14.516-1.45-21.235-4.288
			c0,0-3.676-1.531-10.209-4.287h-0.102c-17.049-7.249-54.006-22.869-99.232-41.96c-127-53.597-318.93-134.555-318.93-134.555
			c-8.824-3.727-15.599-11.095-18.576-20.2c-2.977-9.104-1.86-19.053,3.058-27.271l7.963-13.17l11.637-19.5
			c4.393-7.262,5.612-16.01,3.37-24.195l-1.531-5.717C28.7,334.041,35.206,268.404,63.754,211.281l1.94-3.981
			c3.628-7.125,4.535-15.327,2.552-23.072c-4.216-16.759,5.033-33.973,21.337-39.71l33.179-11.843l32.058-11.537
			c34.147-12.179,69.872-19.366,106.072-21.337c11.435-0.612,22.869-0.714,34.202-0.306c74.083,2.567,145.769,26.888,206.12,69.932
			c16.762,11.986,30.413,27.809,39.815,46.145c0.027,0,0.054,0.01,0.072,0.029c0.02,0.019,0.03,0.045,0.029,0.073
			c4.099,7.975,7.349,16.358,9.698,25.012l2.043,7.452l8.575,31.24l8.474,31.035C581.348,310.458,590.601,319.711,590.644,331.139z"
			/>
		<path fill="none" d="M522.142,247.936l-16.131-0.102c-5.636-0.064-10.299,4.372-10.515,10.005l-66.154-29.3l-14.906-6.636
			c-7.199-3.208-13.354-8.373-17.764-14.906l-14.394-21.745c-2.109-3.143-2.336-7.186-0.593-10.545s5.179-5.501,8.963-5.586
			c1.589-0.005,3.158,0.343,4.596,1.021l101.58,46.859h14.292c3.792,7.581,6.835,15.514,9.086,23.685L522.142,247.936z"/>
		<path fill="none" d="M356.959,454.566l112.196,83.816l-137.414-52.78h-0.204l-9.699-3.88
			c-18.508-7.129-36.429-15.696-53.598-25.625l0.205-0.408c0,0-28.788-88.717-28.788-91.371c0-3.369,29.606-68.4,29.606-68.4
			l35.017,7.044c28.265,5.977,56.99,9.529,85.859,10.618h84.326l-95.147,25.319c-24.234,6.464-42.646,26.206-47.406,50.832
			C327.15,414.357,336.879,439.536,356.959,454.566L356.959,454.566z"/>
		<path fill="none" d="M560.017,331.139v198.975c0.028,5.527-2.181,10.83-6.126,14.701l-4.287,4.288h-27.666
			c-16.545-0.007-32.947-3.052-48.392-8.983l-4.389-1.736L356.96,454.566c-20.08-15.03-29.807-40.212-25.048-64.836
			c4.76-24.625,23.172-44.368,47.405-50.832l95.147-25.319h75.751C556.308,317.337,560.017,323.982,560.017,331.139z"/>
		<path fill="none" d="M530.718,279.175l-18.172-0.102c-3.481-0.062-6.702-1.863-8.576-4.798l-6.737-10.414
			c-1.237-1.756-1.849-3.877-1.736-6.024c0.217-5.632,4.879-10.068,10.515-10.005l16.131,0.102l0.102,0.205L530.718,279.175z"/>
		<g>
			<path fill="none" d="M429.342,228.538l-133.33,28.483c-4.39,0.897-8.948,0.434-13.068-1.327l-26.646-12.149
				c-53.243-24.208-99.163-62.028-133.126-109.645l-0.408-1.225l32.058-11.537c34.146-12.179,69.872-19.366,106.07-21.337
				c11.435-0.612,22.869-0.714,34.202-0.306l95.556,69.523v0.102c-3.784,0.085-7.22,2.226-8.963,5.586
				c-1.743,3.359-1.516,7.402,0.593,10.544l14.394,21.746c4.41,6.533,10.564,11.697,17.765,14.905L429.342,228.538z"/>
			<path fill="none" d="M400.144,566.355l-43.185,21.438c-3.347,1.825-7.446,1.546-10.516-0.714l-87.083-60.642
				C175.039,467.833,99.955,396.946,36.599,316.131c1.558-36.473,10.813-72.204,27.156-104.846l1.94-3.982
				c3.629-7.125,4.536-15.327,2.552-23.072c-4.217-16.763,5.032-33.977,21.336-39.714l33.179-11.843l0.408,1.225l5.308,15.926
				c16.768,50.543,48.181,94.962,90.249,127.613l14.497,11.332l-20.725-4.186c-21.098-4.172-42.543,5.35-53.598,23.798
				c-11.055,18.448-9.339,41.849,4.288,58.487c20.869,25.626,44.995,48.415,71.77,67.787c10.703,7.737,21.812,14.895,33.282,21.439
				c17.169,9.929,35.09,18.496,53.598,25.625l9.699,3.88h0.204l70.75,63.704c2.534,2.32,3.768,5.737,3.299,9.141
				C405.322,561.851,403.212,564.808,400.144,566.355z"/>
		</g>
		<path fill="none" d="M269.263,295.917l-0.817,4.083v16.743c0.001,15.473-7.739,29.919-20.622,38.488
			c-2.583,1.744-4.251,4.551-4.546,7.653c-0.296,3.102,0.81,6.174,3.016,8.375l10.005,10.005c7.78,7.808,12.148,18.38,12.148,29.402
			v45.021l-0.205,0.408c-11.47-6.546-22.579-13.702-33.282-21.439c-26.774-19.373-50.901-42.162-71.77-67.788
			c-13.624-16.638-15.339-40.038-4.284-58.484s32.497-27.969,53.594-23.801l20.725,4.186L269.263,295.917z"/>
		<path fill="none" d="M578.903,600.964c-8.983,47.983-61.559,106.379-110.87,85.552c0,0-3.675-1.531-10.312-4.288l13.987-11.332
			c22.931-18.305,38.659-44.121,44.409-72.893l1.021-5.411l19.294,7.657c1.233,0.491,2.553,0.734,3.881,0.714L578.903,600.964
			L578.903,600.964z"/>
		<path fill="none" d="M521.938,549.103h27.666v38.079c-0.003,1.978-0.105,3.954-0.307,5.921c-0.196,2.637-0.537,5.262-1.021,7.861
			h-7.962c-1.328,0.021-2.647-0.223-3.881-0.714l-19.294-7.657l-24.196-9.698c-3.93-1.628-6.503-5.447-6.532-9.699v-28.892
			C497.984,547.483,509.934,549.098,521.938,549.103z"/>
		<path fill="none" d="M358.49,640.27C231.49,586.672,39.56,505.715,39.56,505.715c-8.825-3.727-15.6-11.096-18.576-20.201
			c-2.977-9.104-1.86-19.052,3.058-27.271l7.963-13.169l6.024,4.799c21.939,17.524,47.128,30.536,74.118,38.283
			c21.064,6.053,41.071,15.315,59.313,27.463L358.49,640.27z"/>
		<path fill="none" d="M590.644,331.139v198.975c0.028,5.527-2.181,10.83-6.125,14.701l-4.288,4.288h-30.627l4.287-4.288
			c3.945-3.871,6.154-9.174,6.126-14.701V331.139c-0.001-7.157-3.71-13.803-9.801-17.559h30.22l0.102-0.205
			C586.802,317.101,590.643,323.851,590.644,331.139L590.644,331.139z"/>
		<path fill="none" d="M552.871,248.139l-30.729-0.205l-1.94-7.249c-2.252-8.171-5.294-16.104-9.086-23.685h27.258l2.654-1.43
			c0.027,0,0.055,0.01,0.073,0.029c0.02,0.019,0.03,0.045,0.028,0.073c4.1,7.975,7.35,16.358,9.699,25.012L552.871,248.139z"/>
		<path fill="none" d="M538.374,217.002h-27.258c-0.205-0.408-0.408-0.919-0.611-1.327c0-0.028-0.01-0.054-0.029-0.073
			c-0.019-0.019-0.045-0.03-0.072-0.029c-9.402-18.336-23.054-34.159-39.815-46.145c-59.862-42.713-130.906-66.985-204.388-69.831
			c9.699-0.408,19.295-0.408,28.893-0.102c74.083,2.567,145.77,26.889,206.12,69.932c16.762,11.987,30.412,27.809,39.814,46.146
			L538.374,217.002z"/>
		<polygon fill="none" points="561.446,279.379 530.718,279.175 522.243,248.139 522.142,247.936 552.871,248.139 		"/>
		<g>
			<path fill="none" d="M580.537,313.375l-0.102,0.205h-30.22c-0.102-0.102-0.204-0.102-0.307-0.205
				c-3.207-1.927-6.875-2.95-10.617-2.961l-8.475-31.035l-0.102-0.205l30.729,0.205l8.474,31.035
				C573.661,310.425,577.33,311.448,580.537,313.375L580.537,313.375z"/>
			<path fill="none" d="M580.23,549.103v38.079c-0.002,1.978-0.105,3.954-0.307,5.921c-0.102,0.817-0.102,1.633-0.204,2.45
				c-0.102,0.511-0.102,0.919-0.205,1.43c-0.102,1.327-0.407,2.655-0.612,3.981h-30.627c0.484-2.6,0.825-5.224,1.021-7.861
				c0.201-1.967,0.304-3.943,0.307-5.921v-38.079H580.23z"/>
		</g>
		<path fill="none" d="M548.276,600.964h30.627c-0.509,2.552-1.123,5.207-1.837,7.759c-1.61,5.922-3.727,11.694-6.329,17.253
			c-1.021,2.144-2.144,4.288-3.166,6.432c-0.407,0.714-0.816,1.531-1.225,2.245c-1.633,2.858-3.369,5.718-5.105,8.475
			c-0.102,0.204-0.305,0.407-0.407,0.612c-2.552,3.675-5.207,7.351-7.963,10.821c-0.14,0.229-0.312,0.434-0.512,0.612
			c-1.021,1.226-2.144,2.552-3.267,3.777c-2.145,2.45-4.491,4.798-6.84,7.146c-2.349,2.246-4.799,4.39-7.249,6.432
			c-1.328,1.021-2.552,1.939-3.881,2.961c-0.116,0.126-0.255,0.229-0.408,0.307c-2.247,1.633-4.595,3.164-7.045,4.695
			c-5.432,3.314-11.265,5.921-17.356,7.759c-1.326,0.307-2.654,0.714-3.981,1.021c-1.43,0.307-2.858,0.612-4.287,0.817
			c-2.9,0.491-5.838,0.729-8.778,0.714c-5.112-0.011-10.196-0.732-15.109-2.144c0.497-0.185,1.009-0.321,1.53-0.408
			c6.092-1.838,11.925-4.445,17.356-7.759c2.45-1.531,4.798-3.063,7.045-4.695c0.153-0.076,0.292-0.181,0.408-0.307
			c1.328-1.021,2.552-1.939,3.881-2.961c2.45-2.042,4.9-4.186,7.249-6.432c2.349-2.349,4.695-4.695,6.84-7.146
			c1.124-1.226,2.246-2.552,3.267-3.777c0.2-0.179,0.372-0.384,0.511-0.612c2.757-3.471,5.412-7.146,7.964-10.821
			c0.102-0.205,0.305-0.408,0.407-0.612c1.736-2.757,3.471-5.615,5.105-8.475c0.408-0.714,0.817-1.531,1.225-2.245
			c1.022-2.144,2.145-4.288,3.166-6.432c2.601-5.559,4.719-11.331,6.329-17.253C547.153,606.171,547.767,603.518,548.276,600.964z"
			/>
	</g>
	<path d="M592.791,553.031c5.82-5.797,9.083-13.68,9.063-21.894V332.146c-0.018-13.989-9.398-26.234-22.901-29.894l-17.267-63.288
		c-8.497-30.998-27.405-58.127-53.548-76.827c-61.516-43.777-134.438-68.71-209.878-71.76c-1.428-0.391-2.926-0.463-4.386-0.212
		c-10.831-0.317-21.687-0.179-32.569,0.413c-37.156,2.059-73.822,9.458-108.87,21.968l-65.322,23.313
		c-21.248,7.498-33.276,29.959-27.735,51.799c1.346,5.396,0.72,11.095-1.765,16.071l-0.011,0.011l-2.013,4.028
		c-16.67,33.474-26.179,70.054-27.917,107.408c-0.12,0.724-0.159,1.458-0.117,2.191c-1.209,27.633,1.844,55.287,9.053,81.99
		l1.565,5.692c1.493,5.504,0.68,11.38-2.252,16.271l-19.591,32.636c-6.464,10.764-7.939,23.805-4.042,35.74
		c3.896,11.937,12.781,21.595,24.351,26.472c0,0,192.994,81.429,319.915,134.979c0.243,0.09,0.458,0.229,0.708,0.299
		c43.379,18.302,78.929,33.303,96.288,40.627c0.523,0.279,1.071,0.511,1.638,0.689c6.224,2.626,9.748,4.114,9.862,4.162
		c7.93,3.357,16.454,5.084,25.064,5.075c15.791-0.342,31.124-5.374,44.047-14.456c27.375-19.123,46.906-47.508,54.986-79.909
		c1.195-1.635,1.861-3.596,1.912-5.621c-0.062-0.8-0.221-1.588-0.474-2.348c0.576-3.918,0.872-7.873,0.882-11.835
		c-0.03-8.369-0.034-16.74-0.011-25.114l0.011-8.364L592.791,553.031z M466.305,663.905l-9.297,7.463
		c-18.698-7.889-52.259-22.049-92.521-39.036L178.068,508.093c-19.091-12.719-40.037-22.404-62.092-28.713
		c-25.318-7.269-48.966-19.426-69.611-35.782l7.061-11.764c5.785-9.678,7.389-21.29,4.446-32.173l-1.565-5.692
		c-4.216-15.57-6.91-31.512-8.045-47.602c59.907,72.157,129.278,135.898,206.234,189.501l87.066,60.601
		c3.451,2.424,7.566,3.726,11.784,3.729c3.2,0.004,6.356-0.759,9.202-2.223l43.259-21.525c6.055-3.079,10.207-8.939,11.105-15.673
		c0.898-6.732-1.573-13.477-6.609-18.035l-29.834-26.899l90.401,34.807c2.091,0.805,4.233,1.411,6.351,2.117v21.461
		c-0.03,8.43,5.11,16.016,12.95,19.111l16.231,6.495C500.675,625.114,486.537,647.703,466.305,663.905z M493.542,227.274
		c1.342,0.617,2.801,0.937,4.277,0.937h38.379c1.522,3.49,2.863,7.058,4.047,10.692h-33.424c-5.727,0.006-11.19,2.406-15.067,6.62
		l-72.119-31.929c-5.443-2.417-10.102-6.309-13.449-11.236l-14.217-21.944L493.542,227.274z M522.923,539.907
		c-15.29,0.012-30.45-2.806-44.715-8.311l-2.924-1.126l-111.181-83.063c-6.885-5.128-12.472-11.799-16.311-19.476
		c-7.448-14.857-7.817-32.277-1.003-47.436s20.09-26.444,36.146-30.733l93.857-24.975h101.605c1.939,1.958,3.029,4.602,3.034,7.358
		v198.992c-0.007,2.792-1.113,5.47-3.08,7.452l-1.318,1.316L522.923,539.907z M546.075,259.321l2.919,10.699l-35.393-0.056
		l-6.779-10.643H546.075z M429.222,240.174l58.026,25.69c0.582,1.786,1.404,3.484,2.445,5.046l6.919,10.379
		c3.813,5.735,10.249,9.177,17.138,9.167h40.821l3.797,13.913H391.182c-28.221-1.156-56.299-4.642-83.945-10.424l-68.714-13.761
		l-12.509-9.764c-28.696-22.267-52.377-50.332-69.5-82.365c28.194,27.289,60.859,49.538,96.577,65.78l26.829,12.208
		c6.036,2.628,12.738,3.319,19.182,1.974L429.222,240.174z M211.546,295.606l19.399,3.885c0.551,0.161,1.114,0.274,1.685,0.337
		l26.622,5.331v12.605c0.013,12.059-6.013,23.322-16.052,30.004c-5.134,3.42-8.463,8.962-9.072,15.101
		c-0.609,6.139,1.568,12.227,5.932,16.588l10.02,10.024c5.89,5.86,9.192,13.83,9.173,22.137v27.355
		c-32.957-21.124-62.379-47.31-87.186-77.592c-10.896-13.312-12.257-32.031-3.405-46.779
		C177.514,299.854,194.675,292.253,211.546,295.606L211.546,295.606z M264.516,375.045l-9.99-10.289
		c15.724-10.462,25.165-28.105,25.145-46.993v-8.516l23.559,4.717c28.966,6.044,58.385,9.665,87.954,10.822h6.219l-19.728,5.249
		c-28.015,7.475-49.295,30.299-54.792,58.767s5.754,57.574,28.971,74.943l53.027,39.616l-78.361-30.17
		c-16.108-6.239-31.763-13.594-46.847-22.015V411.62C279.705,397.894,274.248,384.724,264.516,375.045L264.516,375.045z
		 M497.639,574.228V558.06c8.345,1.494,16.806,2.252,25.283,2.265h48.117l-0.003,2.363c-0.01,8.409-0.007,16.818,0.011,25.229
		c0.005,1.249-0.259,2.602-0.339,3.886l-29.451-0.007L497.639,574.228z M524.895,207.792h-24.832l-99.528-45.916
		c-1.43-0.577-2.921-0.992-4.443-1.236l-64.396-46.845c59.321,7.967,115.81,30.262,164.579,64.959
		C507.41,186.718,517.093,196.542,524.895,207.792L524.895,207.792z M159.295,131.778c33.205-11.854,67.944-18.863,103.147-20.812
		c10.048-0.557,20.086-0.691,30.111-0.402l81.89,59.57c-4.172,6.687-4.047,15.195,0.319,21.756l14.437,21.794
		c3.055,4.492,6.801,8.473,11.097,11.796l-105.47,22.574c-2.215,0.464-4.52,0.235-6.6-0.658l-26.69-12.148
		c-47.799-21.807-89.556-54.947-121.65-96.543L159.295,131.778z M73.854,216.9l2.004-4.017c4.685-9.337,5.863-20.045,3.32-30.179
		c-2.945-11.644,3.469-23.615,14.795-27.612l23.357-8.336l2.425,7.28c15.438,46.478,42.854,88.067,79.485,120.575
		c-22.791,1.602-42.785,15.785-51.832,36.765c-9.047,20.98-5.634,45.254,8.846,62.928c43.167,52.772,99.313,93.416,162.926,117.942
		l8.063,3.104l69.392,62.854l-43.389,21.521l-87.086-60.616c-82.34-57.323-155.792-126.459-217.99-205.183
		C50.047,280.174,58.786,247.16,73.854,216.9z M30.565,476.259c-0.001-4.154,1.129-8.229,3.27-11.789l1.995-3.321
		c22.216,17.225,47.502,30.071,74.514,37.856c20.036,5.732,39.064,14.53,56.409,26.081l97.393,64.911
		c-108.864-45.932-219.573-92.642-219.573-92.642C36.08,493.787,30.559,485.471,30.565,476.259z M522.833,670.556
		c-12.609,9.354-28.646,12.805-43.988,9.467l0.211-0.17c22.968-18.407,39.287-43.82,46.468-72.366l8.137,3.256
		c2.438,0.981,5.04,1.484,7.668,1.479h25.151C558.292,635.702,543.048,656.076,522.833,670.556L522.833,670.556z"/>
</g>
</svg>
