<?xml version="1.0" encoding="utf-8"?>
<!-- Generator: Adobe Illustrator 16.0.0, SVG Export Plug-In . SVG Version: 6.00 Build 0)  -->
<!DOCTYPE svg PUBLIC "-//W3C//DTD SVG 1.1//EN" "http://www.w3.org/Graphics/SVG/1.1/DTD/svg11.dtd">
<svg version="1.1" id="Capa_1" xmlns="http://www.w3.org/2000/svg" xmlns:xlink="http://www.w3.org/1999/xlink" x="0px" y="0px"
	 width="612px" height="489.6px" viewBox="0 151.2 612 489.6" enable-background="new 0 151.2 612 489.6" xml:space="preserve">
<g>
	<rect x="51" y="192" width="30.6" height="408"/>
	<rect x="530.4" y="192" width="30.6" height="408"/>
	<rect x="581.4" y="232.8" width="30.6" height="326.4"/>
	<rect y="232.8" width="30.6" height="326.4"/>
	<path d="M102,640.8h408V151.2H102V640.8z M198.9,457.2c17.809,0,33.976,6.548,45.9,17.136V334.8v-27.683V273.6
		c0-5.019,3.652-9.292,8.609-10.067l193.8-30.6c2.958-0.479,5.946,0.377,8.211,2.326c2.274,1.928,3.58,4.763,3.58,7.742v10.2v51v153
		c0,33.752-29.743,61.2-66.3,61.2s-66.3-27.448-66.3-61.2s29.743-61.2,66.3-61.2c17.809,0,33.976,6.549,45.899,17.136v-97.002
		L265.2,343.511v175.93c0,0.133-0.072,0.255-0.082,0.388c-0.826,33.078-30.182,59.771-66.218,59.771
		c-36.557,0-66.3-27.448-66.3-61.199C132.6,484.648,162.343,457.2,198.9,457.2z"/>
</g>
</svg>
